<svg id="Layer_1" viewBox="0 0 24 24" xmlns="http://www.w3.org/2000/svg" data-name="Layer 1"><path d="m14.65 7.35s.1.08.16.11.13.04.19.04.13-.01.19-.04.12-.06.16-.11l2-2c.2-.2.2-.51 0-.71s-.51-.2-.71 0l-1.15 1.15v-3.79c0-.28-.22-.5-.5-.5s-.5.22-.5.5v3.79l-1.15-1.15c-.2-.2-.51-.2-.71 0s-.2.51 0 .71l2 2z" fill="#3d82c4"/><path d="m11.99 13.5c2.78 0 5.18-1.89 5.83-4.59.05-.21-.04-.42-.21-.54-.18-.11-.41-.11-.58.02-.69.53-1.51.81-2.38.81-2.15 0-3.9-1.75-3.9-3.9 0-1.12.48-2.18 1.32-2.92.16-.14.21-.37.13-.56-.08-.2-.27-.34-.49-.31-3.21.14-5.73 2.78-5.73 6s2.69 6 6 6z" fill="#fed600"/><path d="m12.07 17.72c.1-.31.15-.63.15-.96 0-1.8-1.51-3.26-3.36-3.26-1.34 0-2.55.78-3.07 1.95-.12-.01-.23-.02-.35-.02-1.54 0-2.79 1.21-2.79 2.71 0 .11 0 .22.02.32-.33.18-.73.49-.97 1-.03.07-.19.44-.19.88 0 1.19.99 2.16 2.21 2.16h7.71c1.38 0 2.5-1.09 2.5-2.43 0-1.13-.79-2.08-1.86-2.35z" fill="#eee"/><path d="m22.21 16.28c0-.06 0-.12 0-.17 0-1.25-1.15-2.24-2.41-2.15-.43-.88-1.36-1.46-2.38-1.46-1.46 0-2.64 1.15-2.64 2.57 0 .21.03.43.08.63-.79.26-1.37.99-1.37 1.85 0 1.07.9 1.95 2 1.95h5.79c.98 0 1.79-.78 1.79-1.74 0-.36-.13-.66-.16-.72-.18-.38-.46-.62-.71-.76z" fill="#eee"/><path d="m1.83 12.48 1.14.62.62 1.14c.09.16.26.26.44.26s.35-.1.44-.26l.62-1.14 1.14-.62c.16-.09.26-.26.26-.44s-.1-.35-.26-.44l-1.14-.62-.62-1.14c-.17-.32-.7-.32-.88 0l-.62 1.14-1.14.62c-.16.09-.26.26-.26.44s.1.35.26.44z" fill="#3f4da1"/></svg>