<?xml version="1.0" encoding="iso-8859-1"?>
<!-- Generator: Adobe Illustrator 19.0.0, SVG Export Plug-In . SVG Version: 6.00 Build 0)  -->
<svg version="1.1" id="Capa_1" xmlns="http://www.w3.org/2000/svg" xmlns:xlink="http://www.w3.org/1999/xlink" x="0px" y="0px"
	 viewBox="0 0 500.496 500.496" style="enable-background:new 0 0 500.496 500.496;" xml:space="preserve">
<g>
	<g>
		<g>
			<path d="M66.248,404.496c-17.648,0-32,14.352-32,32s14.352,32,32,32s32-14.352,32-32S83.896,404.496,66.248,404.496z
				 M66.248,452.496c-8.824,0-16-7.176-16-16c0-8.824,7.176-16,16-16c8.824,0,16,7.176,16,16
				C82.248,445.32,75.072,452.496,66.248,452.496z"/>
			<path d="M98.576,381.328l15.872-235.496L66.248,88l-48.2,57.84L33.92,381.336c-19.408,11.392-31.672,32.488-31.672,55.16
				c0,35.288,28.712,64,64,64s64-28.712,64-64C130.248,413.824,117.984,392.728,98.576,381.328z M66.248,484.496
				c-26.472,0-48-21.528-48-48c0-18.384,10.768-35.384,27.44-43.312l4.912-2.336L34.448,151.152l23.8-28.56v185.904h16V122.592
				l23.8,28.56L81.896,390.848l4.912,2.336c16.672,7.928,27.44,24.928,27.44,43.312C114.248,462.968,92.72,484.496,66.248,484.496z"
				/>
			<rect x="58.248" y="324.496" width="16" height="16"/>

			<rect x="242.248" y="324.496" width="16" height="16"/>
			<path d="M474.248,354.968V28.496c0-13.232-10.768-24-24-24s-24,10.768-24,24v326.472c-17.288,9.984-26.744,29.808-23.272,49.968
				c3.28,19.08,18.152,34.544,37.008,38.496c0.752,0.16,1.504,0.232,2.264,0.352v56.712h16v-56.688
				c8.096-1.36,15.752-4.76,22.256-10.048c11.272-9.16,17.744-22.752,17.744-37.264C498.248,379.256,488.984,363.48,474.248,354.968
				z M470.416,421.344c-7.632,6.2-17.272,8.472-27.152,6.424c-12.296-2.576-22.376-13.08-24.52-25.536
				c-2.52-14.696,5.168-29.104,18.712-35.032l4.792-2.096V28.496c0-4.416,3.592-8,8-8c4.408,0,8,3.584,8,8v336.608l4.792,2.096
				c11.672,5.112,19.208,16.608,19.208,29.296C482.248,406.176,477.936,415.232,470.416,421.344z"/>
		</g>
	</g>
</g>
<g>
</g>
<g>
</g>
<g>
</g>
<g>
</g>
<g>
</g>
<g>
</g>
<g>
</g>
<g>
</g>
<g>
</g>
<g>
</g>
<g>
</g>
<g>
</g>
<g>
</g>
<g>
</g>
<g>
</g>
</svg>
